<svg xmlns="http://www.w3.org/2000/svg" viewBox="0 0 1440 320"><path fill="#ffffff" fill-opacity="1" d="M0,256L60,245.3C120,235,240,213,360,192C480,171,600,149,720,160C840,171,960,213,1080,229.3C1200,245,1320,235,1380,229.3L1440,224L1440,320L1380,320C1320,320,1200,320,1080,320C960,320,840,320,720,320C600,320,480,320,360,320C240,320,120,320,60,320L0,320Z"></path><path fill="#ffffff" fill-opacity=".5" d="M0,320L60,282.7C120,245,240,171,360,160C480,149,600,203,720,202.7C840,203,960,149,1080,138.7C1200,128,1320,160,1380,176L1440,192L1440,320L1380,320C1320,320,1200,320,1080,320C960,320,840,320,720,320C600,320,480,320,360,320C240,320,120,320,60,320L0,320Z"></path></svg>